<svg width="376" height="406" viewBox="0 0 376 406" fill="none" xmlns="http://www.w3.org/2000/svg">
<path d="M276.234 49.9477C280.584 49.2377 284.544 48.7777 288.424 47.9077C294.544 46.5277 299.344 48.8577 301.774 54.0377C305.124 61.1777 307.664 68.7477 309.924 76.3177C310.774 79.1677 311.544 80.8077 314.544 81.7877C324.334 84.9877 332.864 90.4577 340.214 97.6577C347.924 105.218 348.804 110.888 344.014 120.478C342.764 122.968 341.494 125.448 340.024 128.348C343.204 129.828 346.184 131.188 349.144 132.608C356.224 136.008 359.264 141.308 358.484 149.118C357.294 161.058 353.794 172.158 346.794 182.098C345.774 183.538 345.904 186.268 346.364 188.198C348.064 195.248 350.614 202.128 351.894 209.238C352.984 215.288 349.704 219.758 344.224 222.498C340.684 224.258 337.144 225.998 333.224 227.938C335.364 232.158 337.304 236.168 339.424 240.078C341.964 244.778 341.624 249.388 337.834 252.888C332.014 258.258 325.854 263.318 319.454 267.968C317.134 269.658 316.104 270.898 316.274 273.808C316.934 285.108 315.024 295.978 310.214 306.308C304.734 318.098 298.724 321.158 285.854 318.578C284.234 318.258 282.574 318.128 280.254 317.818C279.814 320.818 279.334 323.688 278.974 326.568C277.824 335.818 274.274 339.978 265.254 341.888C252.464 344.608 239.784 344.368 227.524 339.298C224.734 338.148 222.914 338.568 220.424 340.368C215.614 343.848 210.444 346.928 205.144 349.588C200.024 352.158 195.104 351.018 190.964 346.968C187.884 343.948 184.834 340.898 180.854 336.958C178.034 340.178 175.354 343.328 172.574 346.368C168.294 351.048 163.034 351.788 157.604 349.048C152.734 346.588 147.954 343.768 143.624 340.468C140.954 338.438 139.074 338.438 136.134 339.648C124.894 344.258 113.234 346.538 101.034 344.398C87.4639 342.018 84.1039 338.528 82.1139 324.728C81.8839 323.118 81.7339 321.488 81.4939 319.448C77.3939 320.078 73.6839 320.678 69.9639 321.218C62.5939 322.298 57.3339 319.078 53.8339 312.858C47.0139 300.708 43.2539 287.768 44.8839 273.698C45.3339 269.838 44.6539 267.398 40.8639 265.268C36.2839 262.698 32.0139 259.288 28.2539 255.588C21.9139 249.338 21.4839 243.968 25.7039 236.238C27.2839 233.358 28.8139 230.448 30.6039 227.108C26.4239 224.978 22.6739 222.938 18.8139 221.128C13.8239 218.788 11.3839 214.938 12.1139 209.528C12.8239 204.278 13.6439 198.968 15.2139 193.938C16.2039 190.748 15.5439 188.768 13.7039 186.308C5.97391 176.038 0.863914 164.638 0.0439143 151.608C-0.456086 143.668 3.33391 138.318 10.3739 135.008C12.9039 133.818 15.3939 132.538 18.4039 131.058C16.5039 127.408 14.8339 124.048 13.0239 120.758C9.80391 114.928 10.6839 109.678 14.7839 104.618C24.1039 93.0877 35.8739 85.4877 50.3239 82.0577C51.4439 81.7877 52.5339 81.3877 52.5139 81.3977C55.5439 72.3677 57.8839 63.8977 61.2439 55.8477C64.3739 48.3477 69.9539 46.0277 77.9139 47.4977C81.3339 48.1277 84.7739 48.6977 88.8639 49.3977C89.5839 45.1777 90.3939 41.1777 90.9239 37.1377C91.7139 31.0177 93.8539 27.7177 99.8039 26.6877C106.624 25.5077 113.634 25.4777 120.524 24.6477C122.514 24.4077 124.694 23.4977 126.254 22.2277C133.694 16.1777 140.464 9.18771 148.384 3.88771C157.734 -2.36229 164.494 -0.922291 172.404 7.09771C174.254 8.96771 175.734 11.1977 177.624 13.5677C181.024 9.93771 183.474 7.24771 186.004 4.64771C190.394 0.13771 195.554 -1.09229 201.504 1.13771C213.474 5.62771 223.754 12.5077 231.094 23.0977C233.214 26.1577 235.274 26.0877 238.514 25.8977C246.584 25.4177 254.764 25.0777 262.784 25.8377C269.524 26.4777 273.764 30.7477 274.294 38.1077C274.574 42.0377 275.564 45.9077 276.254 49.9277L276.234 49.9477ZM271.444 305.798C277.454 306.668 283.144 307.448 288.814 308.338C296.034 309.478 297.434 308.928 300.474 302.418C307.744 286.838 307.694 270.748 302.454 254.768C297.064 238.318 290.504 222.358 275.054 211.438C281.524 209.398 287.244 206.668 293.224 205.878C308.754 203.818 319.934 194.648 330.654 184.528C340.444 175.288 346.064 163.858 347.914 150.508C348.544 145.978 347.504 142.938 342.764 141.218C338.264 139.588 334.114 136.998 329.704 135.068C326.594 133.708 325.714 132.118 327.674 129.028C329.534 126.088 330.964 122.868 332.544 119.758C337.784 109.478 337.544 108.398 328.414 101.238C328.024 100.928 327.604 100.658 327.214 100.338C306.764 83.1577 263.574 84.6177 244.684 96.3677C242.524 97.7077 240.274 98.8977 239.004 99.6277C237.634 85.1077 237.434 70.5277 234.654 56.4477C230.714 36.4577 220.184 20.5077 200.514 12.0677C197.064 10.5877 194.504 10.4277 191.854 13.7377C188.644 17.7577 184.684 21.1777 181.324 25.0877C179.104 27.6677 177.524 27.5477 175.314 25.1277C171.954 21.4377 168.114 18.1677 164.844 14.3977C161.314 10.3177 157.734 10.4777 153.384 12.8977C142.294 19.0877 133.914 27.7877 128.054 39.0377C119.324 55.7977 119.044 73.8877 119.544 92.1077C119.624 94.8577 119.834 97.6077 119.984 100.478C114.234 97.8877 109.204 94.9477 103.784 93.3077C91.2039 89.5077 78.1539 89.3877 65.1839 90.2977C49.1939 91.4177 35.1339 97.0277 24.3139 109.508C21.8939 112.298 21.3939 114.578 23.3339 117.908C26.6239 123.568 29.4339 129.518 32.5639 135.598C26.6839 138.598 21.6239 141.508 16.3039 143.778C11.2639 145.928 9.87391 149.198 10.7239 154.448C14.5839 178.068 40.1639 204.168 64.7039 209.158C71.1439 210.468 77.6239 211.608 84.1239 212.838C83.8639 213.808 83.8539 214.178 83.6739 214.438C83.2939 214.978 82.9039 215.558 82.3839 215.948C69.0239 226.058 63.1839 240.718 58.5939 255.948C53.4939 272.868 52.9439 289.618 61.8539 305.768C64.0639 309.778 66.2239 311.968 71.2439 310.538C76.1739 309.138 81.4239 308.928 86.4139 307.708C89.7639 306.888 90.5939 308.358 90.9639 311.078C91.5939 315.688 92.2539 320.288 92.9439 324.888C94.0439 332.248 95.2639 333.218 102.754 334.198C116.384 335.978 128.984 332.698 140.534 325.878C156.474 316.468 171.024 305.488 177.084 286.698C177.654 284.948 178.974 283.438 180.564 280.788C183.944 286.398 186.704 291.048 189.524 295.668C191.764 299.338 193.504 303.508 196.444 306.518C205.704 316.008 216.574 323.388 228.784 328.658C240.164 333.568 251.904 334.768 263.844 331.168C265.544 330.658 267.524 328.428 267.914 326.668C269.364 320.058 270.214 313.308 271.414 305.818L271.444 305.798Z" fill="#FEA1A1" fill-opacity="0.3"/>
<path d="M365.454 402.488C366.324 403.138 367.194 403.788 368.054 404.438C367.744 404.728 367.444 405.018 367.134 405.298C366.414 404.508 365.684 403.708 364.964 402.918C365.124 402.778 365.294 402.628 365.454 402.488Z" fill="#FEA1A1" fill-opacity="0.3"/>
<path d="M373.434 402.478C374.134 403.288 374.834 404.108 375.544 404.918C375.404 405.028 375.264 405.148 375.124 405.258C374.404 404.468 373.674 403.678 372.954 402.898C373.114 402.758 373.274 402.618 373.434 402.478Z" fill="#FEA1A1" fill-opacity="0.3"/>
<path d="M215.294 268.798C211.954 268.798 209.474 268.818 206.994 268.788C206.344 268.788 205.224 268.828 205.104 268.528C202.614 262.298 197.304 265.888 193.304 265.178C190.724 264.718 187.964 264.868 185.334 265.198C184.114 265.348 183.074 266.688 181.854 267.278C180.504 267.918 179.074 268.588 177.624 268.758C175.524 269.008 173.384 268.818 170.604 268.818C170.604 259.558 170.604 250.788 170.604 242.008C170.604 239.678 170.874 237.298 170.514 235.028C170.284 233.528 169.154 232.178 167.934 229.798C165.574 234.128 163.864 237.258 161.824 240.978C159.764 238.028 158.024 235.558 155.704 232.238V268.488H144.394V232.308C144.134 232.258 143.884 232.208 143.624 232.158C140.514 237.868 137.414 243.588 133.614 250.568C132.144 244.988 130.794 240.838 130.084 236.588C129.844 235.128 130.934 233.188 131.904 231.818C137.124 224.438 141.164 216.558 143.414 207.148H131.384V196.328H144.114V179.968C148.034 179.648 151.404 179.378 155.494 179.048V195.358C166.844 199.248 172.694 192.448 178.244 185.258C183.254 178.778 184.804 178.288 192.884 181.608C192.484 182.978 192.084 184.368 191.554 186.188H215.514C219.404 198.808 210.074 205.228 203.314 213.698C209.554 216.078 215.484 218.348 222.254 220.928C220.144 224.458 217.924 227.938 216.004 231.568C215.364 232.768 215.334 234.378 215.324 235.808C215.274 246.608 215.294 257.408 215.294 268.798ZM175.644 203.908C173.564 205.108 171.634 206.228 169.674 207.358C167.784 204.588 166.164 202.208 164.134 199.238C163.914 202.338 163.754 204.568 163.594 206.938C160.804 207.088 158.374 207.218 155.814 207.358C155.014 216.508 161.024 221.868 165.994 227.768C165.224 225.758 164.444 223.738 163.804 222.048C170.914 219.398 177.534 216.928 184.614 214.288C181.244 210.388 178.464 207.178 175.644 203.908ZM203.804 241.418H182.324V254.148H203.804V241.418ZM212.314 230.958L212.504 230.268C208.524 228.398 204.184 227.038 200.654 224.528C195.724 221.028 191.604 220.918 186.594 224.378C182.884 226.938 178.404 228.388 174.264 230.328C174.364 230.538 174.464 230.748 174.564 230.968H212.324L212.314 230.958ZM193.724 208.228C197.334 204.278 200.324 200.998 203.854 197.128H182.594C186.844 201.368 189.964 204.468 193.724 208.228Z" fill="#FEA1A1" fill-opacity="0.3"/>
<path d="M211.514 125.448V169.108C207.364 168.318 202.544 171.678 199.284 166.048C198.964 165.498 197.444 165.478 196.494 165.488C183.094 165.628 169.684 165.738 156.284 166.078C154.784 166.118 153.334 167.568 151.824 168.278C150.984 168.678 150.074 169.188 149.204 169.188C146.254 169.178 143.314 168.948 140.154 168.798V125.448H211.524H211.514ZM152.224 154.908H199.514V136.218H152.224V154.908Z" fill="#FEA1A1" fill-opacity="0.3"/>
<path d="M221.474 105.608C219.224 109.728 217.254 113.338 214.994 117.488C210.414 115.268 206.004 113.128 201.204 110.798C200.944 112.838 200.714 114.678 200.454 116.788H151.944C151.754 114.668 151.584 112.728 151.374 110.328C146.364 112.758 141.664 115.048 136.594 117.518C134.454 113.518 132.444 109.768 130.424 106.018C136.744 102.998 143.054 100.698 148.554 97.1477C155.074 92.9477 161.094 87.8977 166.954 82.7777C171.014 79.2277 181.124 78.9477 184.794 82.9177C193.344 92.1577 204.084 98.0777 215.434 103.038C217.244 103.828 219.074 104.588 221.484 105.608H221.474ZM192.804 105.898C186.724 100.548 181.064 95.5677 175.674 90.8177C170.214 95.7777 164.754 100.738 159.064 105.898H192.794H192.804Z" fill="#FEA1A1" fill-opacity="0.3"/>
</svg>
