<?xml version="1.0" encoding="UTF-8"?>
<svg id="_图层_2" data-name="图层 2" xmlns="http://www.w3.org/2000/svg" viewBox="0 0 274.9 299.56">
  <defs>
    <style>
      .cls-1 {
        fill: #fff;
        stroke-width: 0px;
      }
    </style>
  </defs>
  <g id="_图层_1-2" data-name="图层 1">
    <g>
      <polygon class="cls-1" points="52.25 63.86 52.25 23.22 40.64 11.61 34.83 23.22 34.83 63.86 46.44 75.47 52.25 63.86"/>
      <polygon class="cls-1" points="17.42 17.42 11.61 11.61 11.61 46.44 17.42 52.25 17.42 17.42"/>
      <polygon class="cls-1" points="29.03 29.03 23.22 23.22 23.22 58.05 29.03 63.86 29.03 29.03"/>
      <polygon class="cls-1" points="5.81 5.81 0 0 0 34.83 5.81 40.64 5.81 5.81"/>
      <polygon class="cls-1" points="75.47 40.64 69.66 34.83 69.66 69.66 75.47 75.47 75.47 40.64"/>
      <polygon class="cls-1" points="63.86 29.03 58.05 23.22 58.05 58.05 63.86 63.86 63.86 29.03"/>
      <polygon class="cls-1" points="87.08 52.25 81.27 46.44 81.27 81.27 87.08 87.08 87.08 52.25"/>
      <rect class="cls-1" x="43.27" y="122.25" width="4.81" height="33.66"/>
      <rect class="cls-1" x="134.67" y="122.25" width="4.81" height="33.66"/>
      <polygon class="cls-1" points="4.81 129.25 14.42 138.85 14.42 138.86 24.04 148.47 24.04 155.92 28.85 155.92 28.85 122.25 24.04 122.25 24.04 141.51 14.42 131.87 14.42 131.89 4.81 122.26 4.81 122.25 0 122.25 0 155.92 4.81 155.92 4.81 129.25"/>
      <polygon class="cls-1" points="158.7 129.25 168.31 138.85 168.31 138.86 177.93 148.47 177.93 155.92 182.74 155.92 182.74 122.25 177.93 122.25 177.93 141.51 168.31 131.87 168.31 131.89 158.7 122.26 158.7 122.25 153.89 122.25 153.89 155.92 158.7 155.92 158.7 129.25"/>
      <polygon class="cls-1" points="120.22 127.06 115.41 122.25 96.17 122.26 96.17 127.06 96.17 136.68 100.98 141.49 115.41 141.49 115.41 151.11 96.17 151.11 100.98 155.92 120.22 155.92 120.22 151.11 120.22 141.49 120.22 141.49 115.41 136.68 100.98 136.68 100.98 127.06 120.22 127.06"/>
      <polygon class="cls-1" points="62.51 151.11 67.32 155.92 86.55 155.92 86.55 151.11 86.55 141.49 81.75 136.68 67.32 136.68 67.32 127.06 86.55 127.06 81.75 122.25 62.51 122.26 62.51 127.06 62.51 136.68 67.32 141.49 81.75 141.49 81.75 151.11 62.51 151.11"/>
      <polygon class="cls-1" points="230.83 197.33 230.83 223.99 235.67 223.99 235.67 190.32 230.83 190.32 230.83 190.34 218.67 202.52 206.8 190.32 206.8 190.32 201.99 190.32 201.99 223.99 206.8 223.99 206.8 197.31 218.67 209.17 230.83 197.33"/>
      <polyline class="cls-1" points="43.31 219.18 48.13 223.99 48.13 223.99 72.17 223.99 72.17 219.18 48.13 219.18 48.13 195.13 72.17 195.13 72.17 190.32 48.13 190.32 43.31 195.13 43.31 219.18"/>
      <path class="cls-1" d="m153.92,195.13l-4.81-4.81h-24.04v33.66h24.04l4.81-4.8v-24.05Zm-24.05,24.05v-24.05h19.24v24.05h-19.24Z"/>
      <polygon class="cls-1" points="192.4 195.13 192.4 190.33 168.35 190.33 163.54 190.33 163.54 223.99 168.35 223.99 168.35 223.98 192.4 223.98 192.4 219.18 168.35 219.18 168.35 209.59 187.59 209.59 187.59 204.79 168.35 204.79 168.35 195.13 192.4 195.13"/>
      <polygon class="cls-1" points="269.36 209.57 269.36 219.18 269.32 219.18 269.32 219.18 250.11 219.18 250.11 223.98 269.32 223.98 269.32 223.99 269.33 223.98 269.36 223.98 269.36 223.95 274.13 219.18 274.13 219.18 274.13 190.32 269.36 190.32 269.36 204.76 250.11 204.76 250.11 190.32 245.3 190.32 245.3 204.76 250.11 209.57 269.36 209.57"/>
      <path class="cls-1" d="m.01,190.36v33.66h4.81v-9.62h24.06v9.59s4.81,0,4.81,0v-19.04l-14.58-14.58H.01Zm28.87,19.24H4.82v-14.43h12.11l11.94,11.94v2.49Z"/>
      <path class="cls-1" d="m115.46,204.92l-14.58-14.58h-19.1s0,33.66,0,33.66h4.81v-9.62h24.06v9.59s4.81,0,4.81,0v-19.04Zm-4.81,4.65h-24.06v-14.43h12.11l11.94,11.94v2.49Z"/>
      <polygon class="cls-1" points=".25 299.51 5.02 299.51 5.02 298.01 22.64 298.01 26.94 293.69 5.02 293.69 5.02 280.66 22.64 280.66 26.94 276.33 5.02 276.33 5.02 263.23 27.11 263.23 27.11 299.51 31.88 299.51 31.88 258.91 .25 258.91 .25 299.51"/>
      <path class="cls-1" d="m110.09,267.31l3.72-3.72h-11.47l4.05-4.05-2.87-2.87-5.94,5.94.99.99h-8.76v-.35l.03-.03,4-4-2.87-2.87-9.16,9.16-5.49-5.49-2.87,2.87,8.37,8.37,3.67-3.67v23.84h24.6l3.72-3.72h-10.67v-4.29h6.95l3.72-3.72h-10.67v-4.44h6.95l3.72-3.72h-10.67v-4.21h6.95Zm-11.27,20.38h-9.01v-4.29h9.01v4.29Zm0-8.01h-9.01v-4.44h9.01v4.44Zm0-8.16h-9.01v-4.21h9.01v4.21Z"/>
      <polygon class="cls-1" points="83.8 295.21 80.32 291.73 80.32 273.62 73.39 273.62 73.39 277.33 75.99 277.33 75.99 291.77 75.96 291.8 71.12 296.65 73.99 299.52 78.18 295.33 82.41 299.56 111.31 299.56 115.64 295.24 83.83 295.24 83.8 295.21"/>
      <polygon class="cls-1" points="181.75 257.52 176.98 257.52 176.98 260.15 165.97 260.15 165.97 257.52 161.19 257.52 161.19 260.15 150.89 260.15 150.89 264.47 161.19 264.47 161.19 269.01 165.97 269.01 165.97 264.47 176.98 264.47 176.98 269.01 181.75 269.01 181.75 264.47 189.12 264.47 193.45 260.15 181.75 260.15 181.75 257.52"/>
      <polygon class="cls-1" points="154.27 271.03 154.27 275.35 185.53 275.35 189.86 271.03 154.27 271.03"/>
      <polygon class="cls-1" points="172.09 285.01 189.12 285.01 193.45 280.69 150.68 280.69 150.68 285.01 165.97 285.01 165.8 285.18 156.4 294.58 152.48 294.58 152.48 298.9 179.91 298.9 183.63 295.19 187.34 298.9 193.08 298.9 180.84 286.66 177.97 289.53 183.01 294.58 162.52 294.58 162.69 294.41 172.09 285.01"/>
      <rect class="cls-1" x="229.15" y="261.3" width="12.54" height="4.34" transform="translate(-117.35 243.64) rotate(-45)"/>
      <polygon class="cls-1" points="259.98 267.53 252.46 267.57 252.46 257.47 248.12 257.47 248.12 267.57 242.71 267.57 242.71 271.31 248.12 271.31 248.12 280.7 248.09 280.72 239.4 289.41 242.47 292.48 248.12 286.84 248.12 299.52 252.46 299.52 252.46 280.3 259.46 287.3 262.52 284.23 252.46 274.16 252.46 271.31 259.98 271.27 259.98 274.61 265.33 274.61 265.33 295.78 258.92 295.78 262.65 299.52 269.67 299.52 269.67 274.61 271.16 274.61 274.9 270.87 259.98 270.87 259.98 267.53"/>
      <polygon class="cls-1" points="239.44 268.26 228.54 279.16 231.61 282.23 233.53 280.31 233.53 299.52 237.87 299.52 237.87 275.97 237.9 275.94 242.51 271.33 239.44 268.26"/>
      <polygon class="cls-1" points="260.99 263.54 271.16 263.54 274.9 259.81 260.99 259.81 260.99 263.54"/>
      <rect class="cls-1" x="255.19" y="259.77" width="3.89" height="6.2" transform="translate(-110.57 258.81) rotate(-45)"/>
    </g>
  </g>
</svg>